<svg xmlns="http://www.w3.org/2000/svg" viewBox="0 0 1159 802.08"><defs><style>.cls-1{fill:#fff;}.cls-2{fill:#e31c3d;}.cls-3{fill:none;}.cls-4{fill:#02bfe7;}.cls-5{fill:#112e51;stroke:#112e51;stroke-miterlimit:10;}</style></defs><title>Asset 1</title><g id="Layer_2" data-name="Layer 2"><g id="Layer_2-2" data-name="Layer 2"><polygon class="cls-1" points="399.5 400.29 0 799.79 179.5 800.29 359.5 800.29 579.5 580.29 799.5 800.29 980.5 800.29 1159 799.79 759.5 400.29 1159 0.79 980.5 1.29 979.5 0.29 799.5 0.29 579.5 220.29 359.5 0.29 179.5 0.29 0 0.79 399.5 400.29"/><polygon class="cls-2" points="320.92 0.29 179.5 0.29 37.79 0 838.08 800.29 979.5 800.29 1119.71 799.08 320.92 0.29"/><polygon class="cls-3" points="320.92 800.29 979.5 800.29 979.5 141.71 320.92 800.29"/><polygon class="cls-3" points="179.5 0.29 179.5 658.87 838.08 0.29 179.5 0.29"/><polygon class="cls-4" points="979.5 0.29 838.08 0.29 36.29 802.08 179.5 800.29 320.92 800.29 1120.71 0.5 979.5 0.29"/><rect class="cls-5" x="480.51" y="298.47" width="197.99" height="203.64" transform="translate(-113.32 527.01) rotate(-45)"/><polygon id="star" class="cls-1" points="580.5 330.46 599.97 369.91 643.5 376.23 612 406.94 619.43 450.29 580.5 429.82 541.57 450.29 549 406.94 517.5 376.23 561.03 369.91 580.5 330.46"/></g></g></svg>